<svg width="512" height="512" viewBox="0 0 512 512" fill="none" xmlns="http://www.w3.org/2000/svg">
<path d="M458.634 53.496C410.33 5.378 340.875 0 256 0C171.018 0 101.458 5.44 53.174 53.688C4.897 101.916 0 171.364 0 256.249C0 341.148 4.897 410.617 53.194 458.862C101.475 507.117 171.027 512.001 256 512.001C340.974 512.001 410.514 507.117 458.795 458.862C507.089 410.608 512 341.148 512 256.249C512 171.255 507.036 101.732 458.634 53.496Z" fill="#ED1D33"/>
<path d="M256.5 337C187.558 337 122.749 310.217 74 261.579L127.701 208C162.099 242.321 207.848 261.23 256.5 261.23C305.152 261.23 350.889 242.333 385.299 208L439 261.579C390.251 310.217 325.442 337 256.5 337Z" fill="#FFC808"/>
</svg>
