<svg width="295" height="120" viewBox="0 0 295 120" fill="none" xmlns="http://www.w3.org/2000/svg">
<path d="M147.494 55C118.222 55 90.6989 43.5826 70 22.8478L92.8082 0C107.418 14.6352 126.84 22.6927 147.5 22.6927C168.16 22.6927 187.582 14.6352 202.192 0L225 22.8413C204.301 43.5761 176.778 55 147.506 55H147.494Z" fill="#FFC808"/>
<path d="M279.454 119.695C276.015 119.695 272.96 118.971 270.29 117.523C267.62 116.029 265.493 113.993 263.91 111.413C262.371 108.834 261.602 105.892 261.602 102.589C261.602 99.3303 262.348 96.434 263.842 93.8997C265.38 91.3202 267.462 89.2838 270.087 87.7904C272.712 86.2517 275.63 85.4824 278.843 85.4824C282.011 85.4824 284.794 86.2065 287.193 87.6546C289.637 89.0575 291.537 91.0035 292.895 93.4924C294.298 95.9362 294.999 98.7193 294.999 101.842C294.999 102.43 294.954 103.041 294.864 103.675C294.818 104.263 294.705 104.942 294.524 105.711L266.964 105.779V99.1266L290.383 99.0587L286.786 101.842C286.695 99.8959 286.333 98.2668 285.7 96.9544C285.111 95.642 284.229 94.6464 283.052 93.9676C281.921 93.2435 280.518 92.8815 278.843 92.8815C277.079 92.8815 275.54 93.2888 274.228 94.1034C272.915 94.8727 271.897 95.9814 271.173 97.4296C270.494 98.8325 270.155 100.507 270.155 102.453C270.155 104.444 270.517 106.186 271.241 107.68C272.01 109.128 273.096 110.259 274.499 111.074C275.902 111.843 277.531 112.228 279.387 112.228C281.061 112.228 282.577 111.956 283.935 111.413C285.292 110.825 286.469 109.965 287.464 108.834L292.691 114.061C291.107 115.916 289.161 117.319 286.854 118.269C284.591 119.22 282.124 119.695 279.454 119.695Z" fill="#ED1D33"/>
<path d="M230.441 113.925L247.819 91.3201H258.544L241.167 113.925H230.441ZM230.441 119.016V113.925L237.501 111.277H258.137V119.016H230.441ZM231.663 93.9675V86.229H258.544V91.3201L251.417 93.9675H231.663Z" fill="#ED1D33"/>
<path d="M206.555 119.695C203.568 119.695 200.876 118.948 198.477 117.455C196.079 115.961 194.201 113.925 192.843 111.345C191.485 108.766 190.807 105.87 190.807 102.656C190.807 99.3981 191.485 96.4792 192.843 93.8997C194.201 91.3202 196.079 89.2838 198.477 87.7904C200.876 86.297 203.568 85.5503 206.555 85.5503C208.908 85.5503 211.013 86.0255 212.868 86.9758C214.724 87.9261 216.194 89.2612 217.28 90.9808C218.412 92.6552 219.023 94.5559 219.113 96.6829V108.494C219.023 110.666 218.412 112.59 217.28 114.264C216.194 115.939 214.724 117.274 212.868 118.269C211.013 119.22 208.908 119.695 206.555 119.695ZM208.184 111.481C210.673 111.481 212.687 110.666 214.226 109.037C215.764 107.363 216.534 105.213 216.534 102.589C216.534 100.869 216.172 99.3529 215.448 98.0405C214.769 96.6829 213.796 95.642 212.529 94.9179C211.307 94.1486 209.859 93.764 208.184 93.764C206.555 93.764 205.107 94.1486 203.84 94.9179C202.618 95.642 201.645 96.6829 200.921 98.0405C200.242 99.3529 199.903 100.869 199.903 102.589C199.903 104.353 200.242 105.915 200.921 107.272C201.645 108.585 202.618 109.626 203.84 110.395C205.107 111.119 206.555 111.481 208.184 111.481ZM216.059 119.016V110.191L217.484 102.181L216.059 94.307V86.2291H224.883V119.016H216.059Z" fill="#ED1D33"/>
<path d="M176.072 119.016V69.9375H184.965V119.016H176.072Z" fill="#ED1D33"/>
<path d="M154.356 119.695C152.003 119.695 149.876 119.197 147.975 118.201C146.075 117.206 144.559 115.848 143.427 114.128C142.296 112.409 141.685 110.485 141.595 108.358V96.6828C141.685 94.5559 142.296 92.6552 143.427 90.9808C144.604 89.2611 146.143 87.9261 148.043 86.9758C149.944 86.0254 152.048 85.5503 154.356 85.5503C157.388 85.5503 160.104 86.297 162.502 87.7904C164.901 89.2838 166.779 91.3202 168.136 93.8997C169.539 96.4792 170.241 99.3981 170.241 102.656C170.241 105.869 169.539 108.766 168.136 111.345C166.779 113.925 164.901 115.961 162.502 117.455C160.104 118.948 157.388 119.695 154.356 119.695ZM136.164 119.016V69.9375H145.057V94.307L143.563 102.181L144.989 110.191V119.016H136.164ZM152.863 111.481C154.492 111.481 155.918 111.119 157.139 110.395C158.407 109.626 159.38 108.585 160.058 107.272C160.782 105.915 161.144 104.353 161.144 102.589C161.144 100.869 160.782 99.3529 160.058 98.0405C159.38 96.6828 158.407 95.642 157.139 94.9179C155.872 94.1486 154.424 93.7639 152.795 93.7639C151.166 93.7639 149.718 94.1486 148.451 94.9179C147.229 95.642 146.256 96.6828 145.532 98.0405C144.853 99.3529 144.513 100.869 144.513 102.589C144.513 104.353 144.853 105.915 145.532 107.272C146.256 108.585 147.251 109.626 148.519 110.395C149.786 111.119 151.234 111.481 152.863 111.481Z" fill="#ED1D33"/>
<path d="M115.12 119.695C111.681 119.695 108.626 118.971 105.956 117.523C103.286 116.029 101.159 113.993 99.5756 111.413C98.0369 108.834 97.2676 105.892 97.2676 102.589C97.2676 99.3303 98.0143 96.434 99.5077 93.8997C101.046 91.3202 103.128 89.2838 105.753 87.7904C108.378 86.2517 111.296 85.4824 114.509 85.4824C117.677 85.4824 120.46 86.2065 122.859 87.6546C125.303 89.0575 127.203 91.0035 128.561 93.4924C129.964 95.9362 130.665 98.7193 130.665 101.842C130.665 102.43 130.62 103.041 130.53 103.675C130.484 104.263 130.371 104.942 130.19 105.711L102.63 105.779V99.1266L126.049 99.0587L122.452 101.842C122.361 99.8959 121.999 98.2668 121.366 96.9544C120.777 95.642 119.895 94.6464 118.718 93.9676C117.587 93.2435 116.184 92.8815 114.509 92.8815C112.745 92.8815 111.206 93.2888 109.894 94.1034C108.581 94.8727 107.563 95.9814 106.839 97.4296C106.16 98.8325 105.821 100.507 105.821 102.453C105.821 104.444 106.183 106.186 106.907 107.68C107.676 109.128 108.762 110.259 110.165 111.074C111.568 111.843 113.197 112.228 115.053 112.228C116.727 112.228 118.243 111.956 119.601 111.413C120.958 110.825 122.135 109.965 123.13 108.834L128.357 114.061C126.773 115.916 124.828 117.319 122.52 118.269C120.257 119.22 117.79 119.695 115.12 119.695Z" fill="#ED1D33"/>
<path d="M82.2351 119.695C78.8863 119.695 75.8769 118.948 73.2069 117.455C70.5369 115.961 68.4326 113.925 66.8939 111.345C65.3553 108.766 64.5859 105.87 64.5859 102.656C64.5859 99.3981 65.3553 96.4792 66.8939 93.8997C68.4326 91.3202 70.5369 89.2838 73.2069 87.7904C75.9222 86.2517 78.9316 85.4824 82.2351 85.4824C84.8146 85.4824 87.1905 85.9576 89.3627 86.9079C91.5349 87.8583 93.413 89.2159 94.9969 90.9808L89.2948 96.7508C88.435 95.8004 87.3941 95.0764 86.1723 94.5786C84.9957 94.0808 83.6833 93.8319 82.2351 93.8319C80.606 93.8319 79.1352 94.2165 77.8228 94.9858C76.5557 95.7099 75.5375 96.7281 74.7682 98.0405C74.0441 99.3076 73.6821 100.824 73.6821 102.589C73.6821 104.308 74.0441 105.847 74.7682 107.205C75.5375 108.517 76.5557 109.558 77.8228 110.327C79.1352 111.051 80.606 111.413 82.2351 111.413C83.7285 111.413 85.0635 111.164 86.2402 110.666C87.462 110.123 88.5029 109.354 89.3627 108.359L95.1326 114.128C93.4582 115.939 91.5349 117.319 89.3627 118.269C87.1905 119.22 84.8146 119.695 82.2351 119.695Z" fill="#ED1D33"/>
<path d="M49.922 119.016V86.229H58.8823V119.016H49.922ZM54.4021 80.9342C52.954 80.9342 51.7548 80.459 50.8044 79.5087C49.8541 78.5131 49.3789 77.2912 49.3789 75.8431C49.3789 74.4402 49.8541 73.2409 50.8044 72.2453C51.7548 71.2498 52.954 70.752 54.4021 70.752C55.8955 70.752 57.0948 71.2498 57.9999 72.2453C58.9502 73.2409 59.4254 74.4402 59.4254 75.8431C59.4254 77.2912 58.9502 78.5131 57.9999 79.5087C57.0948 80.459 55.8955 80.9342 54.4021 80.9342Z" fill="#ED1D33"/>
<path d="M33.1484 119.016V69.9375H42.0409V119.016H33.1484Z" fill="#ED1D33"/>
<path d="M14.2551 119.762C12.3997 119.762 10.5669 119.513 8.75672 119.016C6.9918 118.518 5.36264 117.839 3.86925 116.979C2.37586 116.074 1.08611 114.988 0 113.721L5.29476 108.358C6.42612 109.625 7.7385 110.576 9.23189 111.209C10.7253 111.843 12.3771 112.16 14.1872 112.16C15.6354 112.16 16.7215 111.956 17.4456 111.549C18.2149 111.141 18.5996 110.53 18.5996 109.716C18.5996 108.811 18.1923 108.109 17.3777 107.612C16.6084 107.114 15.5901 106.706 14.323 106.39C13.0559 106.028 11.7209 105.643 10.318 105.236C8.96037 104.783 7.64799 104.218 6.38087 103.539C5.11375 102.815 4.0729 101.842 3.25832 100.62C2.48899 99.3527 2.10433 97.7235 2.10433 95.7323C2.10433 93.6506 2.60213 91.8404 3.59772 90.3018C4.63857 88.7631 6.10934 87.5639 8.01003 86.7041C9.91071 85.8442 12.1508 85.4143 14.7303 85.4143C17.4456 85.4143 19.8893 85.8895 22.0615 86.8398C24.279 87.7902 26.1118 89.2157 27.5599 91.1164L22.1973 96.479C21.2017 95.2571 20.0703 94.3747 18.8032 93.8316C17.5813 93.2886 16.2463 93.017 14.7982 93.017C13.4858 93.017 12.4676 93.2207 11.7435 93.628C11.0647 94.0353 10.7253 94.6009 10.7253 95.325C10.7253 96.1396 11.11 96.7732 11.8793 97.2257C12.6939 97.6782 13.7347 98.0855 15.0018 98.4476C16.269 98.7644 17.5813 99.149 18.939 99.6016C20.3418 100.009 21.6542 100.597 22.8761 101.366C24.1432 102.136 25.1614 103.154 25.9308 104.421C26.7453 105.688 27.1526 107.317 27.1526 109.309C27.1526 112.522 25.9986 115.079 23.6907 116.979C21.3827 118.835 18.2375 119.762 14.2551 119.762Z" fill="#ED1D33"/>
</svg>
